#N canvas 360 233 400 334 10;
#X obj 38 201 inlet;
#X obj 38 223 min;
#X obj 38 245 max;
#X obj 38 267 outlet;
#X obj 154 206 max;
#X obj 211 228 min;
#X obj 154 82 t f f;
#X obj 277 90 t b f;
#X obj 184 164 t b b;
#X obj 304 189 t f f;
#X obj 212 14 inlet;
#X obj 277 14 inlet;
#X obj 154 60 \$1;
#X obj 277 53 \$2;
#X obj 154 14 loadbang;
#X obj 154 36 t b b;
#X connect 0 0 1 0;
#X connect 1 0 2 0;
#X connect 2 0 3 0;
#X connect 4 0 1 1;
#X connect 5 0 2 1;
#X connect 6 0 4 0;
#X connect 6 1 5 0;
#X connect 7 0 8 0;
#X connect 7 1 9 0;
#X connect 8 0 4 0;
#X connect 8 1 5 0;
#X connect 9 0 4 1;
#X connect 9 1 5 1;
#X connect 10 0 12 0;
#X connect 11 0 13 0;
#X connect 12 0 6 0;
#X connect 13 0 7 0;
#X connect 14 0 15 0;
#X connect 15 0 12 0;
#X connect 15 1 13 0;
