#N canvas 273 226 450 300 10;
#X obj 58 21 inlet;
#X obj 58 44 spigot 1;
#X msg 135 26 0;
#X obj 77 106 del \$1;
#X msg 77 129 1;
#X obj 58 158 outlet;
#X obj 58 67 t a b b;
#X obj 228 50 inlet;
#X connect 0 0 1 0;
#X connect 1 0 6 0;
#X connect 2 0 1 1;
#X connect 3 0 4 0;
#X connect 4 0 1 1;
#X connect 6 0 5 0;
#X connect 6 1 3 0;
#X connect 6 2 2 0;
#X connect 7 0 3 1;
