#N canvas 113 165 910 444 10;
#X obj 38 379 r here;
#X floatatom 38 401 0 0 0 0 - - -;
#X obj 231 379 r there;
#X floatatom 231 401 0 0 0 0 - - -;
#X obj 19 18 cnv 15 400 40 empty empty empty 20 12 0 14 -191765 -66577
0;
#X text 480 140 Inlet: symbol to set destination of value;
#X text 672 388 Made by Alexandros Drymonitis;
#X text 29 25 [dyn_val]: vanilla abstraction to type numbers without
needing to click on a number atom;
#X obj 38 276 dyn_val 0 here;
#X obj 231 276 dyn_val 1 there;
#X text 465 35 Arguments:;
#X text 522 53 1st: abstraction index \, so you can switch between
abstractions using Shift+arguments. Single digital numbers only \,
so you can have up to ten if you want to use this feature.;
#X text 523 111 2nd: destination name;
#X text 33 77 Set the destination via the symbol atom \, if you haven't
done so via argument (then click anywhere outside the abstraction \,
otherwise whatever you type will be typed in the symbol atom again)
\, activate the abstraction with the toggle (it's active by default)
and type the number you want. There's a number atom in the abstraction
to display what the number as you type. Hit return to receive the value
in the [receive] you've set via the symbol atom.;
#X text 34 191 Use Shift+argument to activate the corresponding abstraction
\, so you can easily switch between abstractions without needing to
click. The toggle of each abstraction will be activated or deactivated
accordingly;
#X connect 0 0 1 0;
#X connect 2 0 3 0;
