#N canvas 366 339 837 347 10;
#X obj 69 251 print;
#X obj 19 16 cnv 15 400 60 empty empty empty 20 12 0 14 -191765 -66577
0;
#X text 457 33 Arguments: number of inlets;
#X text 26 84 This abstraction is inspired by [vanillaBondo] by Matt
Davey;
#X text 472 257 Made by Alexandros Drymonitis;
#X symbolatom 96 166 10 0 0 0 - - -;
#X floatatom 69 147 5 0 0 0 - - -;
#X symbolatom 150 206 10 0 0 0 - - -;
#X floatatom 123 187 5 0 0 0 - - -;
#X text 456 91 Outlet: list of received floats and symbols;
#X obj 69 229 extendedJoin 4;
#X text 26 20 [extendedJoin]: Pd-extended abstraction \, similar to
Max's [join] \, which is a [pack] with hot inlets only where you don't
need to specify whether you provide a float or a symbol;
#X msg 40 166 bang;
#X text 455 60 Inlets: floats or symbols to be packed into a list \,
bang any inlet to output the whole list;
#X connect 5 0 10 1;
#X connect 6 0 10 0;
#X connect 7 0 10 3;
#X connect 8 0 10 2;
#X connect 10 0 0 0;
#X connect 12 0 10 0;
