#N canvas 476 251 386 296 10;
#X obj 98 175 inlet~;
#X obj 98 219 +~;
#X obj 98 241 outlet~;
#X obj 95 37 loadbang;
#X obj 243 108 sel 0;
#X msg 243 130 1;
#X obj 160 158 * -2;
#X obj 160 180 + 1;
#X obj 160 135 t f f;
#X obj 225 152 *;
#X obj 160 37 inlet;
#X obj 98 197 *~;
#X obj 95 59 t b b;
#X obj 160 113 \$1;
#X obj 243 76 \$2;
#X connect 0 0 11 0;
#X connect 1 0 2 0;
#X connect 3 0 12 0;
#X connect 4 0 5 0;
#X connect 4 1 9 1;
#X connect 5 0 9 1;
#X connect 6 0 7 0;
#X connect 7 0 11 1;
#X connect 8 0 6 0;
#X connect 8 1 9 0;
#X connect 9 0 1 1;
#X connect 10 0 13 0;
#X connect 11 0 1 0;
#X connect 12 0 13 0;
#X connect 12 1 14 0;
#X connect 13 0 8 0;
#X connect 14 0 4 0;
