#N canvas 669 108 338 543 10;
#X obj 20 238 t f b;
#X obj 20 303 until;
#X obj 20 386 f;
#X obj 51 386 + 1;
#X obj 20 461 sel, f 12;
#X obj 141 426 outlet counter;
#X obj 35 364 f;
#X obj 54 136 inlet start_val;
#X obj 89 160 inlet end_val;
#X obj 189 285 inlet stop;
#N canvas 1679 348 462 433 start-end 0;
#X obj 160 329 f;
#X obj 322 285 outlet to_sel;
#X obj 227 166 t b f;
#X obj 187 119 inlet start_val;
#X obj 227 141 inlet end_val;
#X obj 160 356 outlet num_of_iterations;
#N canvas 1012 145 749 377 define_start_and_end 0;
#X obj 57 306 outlet num_of_iterations;
#X obj 364 277 outlet to_sel;
#X obj 152 151 ||;
#X obj 364 40 inlet input_val;
#X obj 364 87 spigot;
#X text 364 6 if no args are provided;
#X text 365 18 send incoming value to [sel];
#X obj 57 87 inlet start_val;
#X obj 241 40 inlet end_val;
#X obj 397 65 r \$0-no_args;
#X msg 268 133 1;
#X obj 57 109 t f b;
#X msg 152 127 1;
#N canvas 176 506 507 314 get_diff_and_dir 0;
#X obj 30 53 t f f;
#X obj 184 59 t f f;
#X obj 30 148 -;
#X obj 30 234 outlet diff;
#X obj 196 103 f;
#X obj 57 77 <;
#X obj 243 117 * 2;
#X obj 243 139 - 1;
#X text 269 126 make 0 or 1 \, -1 or 1;
#X obj 30 27 inlet start_val;
#X obj 184 27 inlet end_val;
#X obj 57 99 t b f;
#X obj 30 173 abs;
#X obj 243 161 outlet dir;
#X obj 30 204 +;
#X obj 108 163 r \$0-num_args;
#X obj 108 186 > 1;
#X text 109 207 if we define both start and end \, then we want to include the end \, so we need to loop one more iteration;
#X connect 0 0 2 0;
#X connect 0 1 5 0;
#X connect 1 0 5 1;
#X connect 1 1 4 1;
#X connect 2 0 12 0;
#X connect 4 0 2 1;
#X connect 5 0 11 0;
#X connect 6 0 7 0;
#X connect 7 0 13 0;
#X connect 9 0 0 0;
#X connect 10 0 1 0;
#X connect 11 0 4 0;
#X connect 11 1 6 0;
#X connect 12 0 14 0;
#X connect 14 0 3 0;
#X connect 15 0 16 0;
#X connect 16 0 14 1;
#X restore 57 255 pd get_diff_and_dir;
#X obj 168 279 outlet dir;
#X text 265 171 send to [pd protect_from_crash] which is in the parent patch of this subpatch to define whether a bang will go to [f ] or straight to [until];
#X obj 241 62 t f b;
#X obj 241 237 t f f;
#X obj 84 225 s \$0-start_val;
#X obj 405 214 r \$0-num_args;
#X text 437 238 subtract one only if we have one argument;
#X obj 152 175 s \$0-permit_bang;
#X obj 405 237 <= 1;
#X obj 364 255 - 1;
#X obj 57 132 t f f;
#X obj 364 112 t f b;
#X msg 391 137 1;
#X connect 2 0 21 0;
#X connect 3 0 4 0;
#X connect 4 0 25 0;
#X connect 7 0 11 0;
#X connect 8 0 16 0;
#X connect 9 0 4 1;
#X connect 10 0 2 1;
#X connect 11 0 24 0;
#X connect 11 1 12 0;
#X connect 12 0 2 0;
#X connect 13 0 0 0;
#X connect 13 1 14 0;
#X connect 16 0 17 0;
#X connect 16 1 10 0;
#X connect 17 0 13 1;
#X connect 17 1 23 0;
#X connect 19 0 22 0;
#X connect 22 0 23 1;
#X connect 23 0 1 0;
#X connect 24 0 13 0;
#X connect 24 1 18 0;
#X connect 25 0 23 0;
#X connect 25 1 26 0;
#X connect 26 0 14 0;
#X restore 187 261 pd define_start_and_end;
#X obj 22 25 inlet bang_or_val;
#X obj 160 93 t f f, f 27;
#X obj 22 51 route bang list float;
#X obj 63 137 t b f;
#X obj 187 228 f;
#X obj 63 115 unpack f f;
#X obj 254 285 outlet dir;
#N canvas 380 253 352 257 protect_from_crash 0;
#X obj 30 36 inlet;
#X obj 30 58 t b b;
#X obj 30 116 spigot;
#X obj 151 116 spigot;
#X obj 157 58 t f f;
#X obj 63 90 == 0;
#X obj 151 138 outlet to_f;
#X msg 30 169 a bang without number of iterations will crash Pd;
#X obj 30 192 print loop;
#X obj 157 36 r \$0-permit_bang;
#X connect 0 0 1 0;
#X connect 1 0 2 0;
#X connect 1 1 3 0;
#X connect 2 0 7 0;
#X connect 3 0 6 0;
#X connect 4 0 5 0;
#X connect 4 1 3 1;
#X connect 5 0 2 1;
#X connect 7 0 8 0;
#X connect 9 0 4 0;
#X restore 22 261 pd protect_from_crash;
#X obj 328 191 r \$0-end_val_arg;
#X obj 195 191 r \$0-start_val_arg;
#X connect 0 0 5 0;
#X connect 2 0 11 0;
#X connect 2 1 6 1;
#X connect 3 0 11 0;
#X connect 4 0 2 0;
#X connect 6 0 0 1;
#X connect 6 1 13 0;
#X connect 6 2 1 0;
#X connect 7 0 9 0;
#X connect 8 0 0 0;
#X connect 8 1 6 2;
#X connect 9 0 14 0;
#X connect 9 1 12 0;
#X connect 9 2 8 0;
#X connect 10 0 0 0;
#X connect 10 1 11 0;
#X connect 11 0 6 0;
#X connect 12 0 10 0;
#X connect 12 1 6 1;
#X connect 14 0 0 0;
#X connect 15 0 6 1;
#X connect 16 0 11 0;
#X restore 20 209 pd start-end;
#X obj 20 13 inlet bang_or_val;
#X obj 20 408 t f b f;
#X obj 20 483 outlet done;
#X obj 39 435 outlet bangs;
#X obj 20 35 route bang float list;
#N canvas 944 228 513 468 args 0;
#X obj 37 37 loadbang;
#X msg 37 60 args;
#X obj 37 83 pdcontrol;
#X obj 37 106 t l l;
#X obj 114 124 list length;
#X obj 37 129 t a a;
#X obj 37 272 spigot;
#X obj 106 265 spigot;
#X obj 70 227 == 1;
#X obj 139 227 == 2;
#X obj 106 288 unpack;
#X obj 37 303 t b f;
#X msg 37 329 0;
#X obj 114 197 t f f f, f 9;
#X msg 314 280 1;
#X obj 314 303 s \$0-no_args;
#X obj 215 215 == 0;
#X obj 215 238 sel 1;
#X obj 114 148 t f f;
#X obj 141 174 s \$0-num_args;
#X obj 106 374 s \$0-start_val_arg;
#X obj 139 344 s \$0-end_val_arg;
#X obj 215 262 t b b b;
#X msg 234 288 1e+38;
#X connect 0 0 1 0;
#X connect 1 0 2 0;
#X connect 2 0 3 0;
#X connect 3 0 5 0;
#X connect 3 1 4 0;
#X connect 4 0 18 0;
#X connect 5 0 6 0;
#X connect 5 1 7 0;
#X connect 6 0 11 0;
#X connect 7 0 10 0;
#X connect 8 0 6 1;
#X connect 9 0 7 1;
#X connect 10 0 20 0;
#X connect 10 1 21 0;
#X connect 11 0 12 0;
#X connect 11 1 21 0;
#X connect 12 0 20 0;
#X connect 13 0 8 0;
#X connect 13 1 9 0;
#X connect 13 2 16 0;
#X connect 14 0 15 0;
#X connect 16 0 17 0;
#X connect 17 0 22 0;
#X connect 18 0 13 0;
#X connect 18 1 19 0;
#X connect 22 0 12 0;
#X connect 22 1 23 0;
#X connect 22 2 14 0;
#X connect 23 0 21 0;
#X restore 211 32 pd args;
#X obj 50 337 r \$0-start_val;
#X obj 102 59 t l b;
#X msg 159 77 2;
#X obj 159 100 s \$0-num_args;
#X obj 89 185 t f b;
#X connect 0 0 1 0;
#X connect 0 1 6 0;
#X connect 1 0 2 0;
#X connect 2 0 3 0;
#X connect 2 0 12 0;
#X connect 3 0 2 1;
#X connect 4 0 13 0;
#X connect 6 0 2 1;
#X connect 7 0 10 1;
#X connect 8 0 21 0;
#X connect 9 0 1 1;
#X connect 10 0 0 0;
#X connect 10 1 3 1;
#X connect 10 2 4 1;
#X connect 11 0 15 0;
#X connect 12 0 4 0;
#X connect 12 1 14 0;
#X connect 12 2 5 0;
#X connect 15 0 10 0;
#X connect 15 1 10 0;
#X connect 15 2 18 0;
#X connect 17 0 6 1;
#X connect 18 0 10 0;
#X connect 18 1 19 0;
#X connect 19 0 20 0;
#X connect 21 0 10 2;
#X connect 21 1 19 0;
