#N canvas 408 336 726 444 10;
#X obj 62 78 r \$0-from_low;
#X obj 172 10 inlet from_low;
#X obj 335 10 inlet from_high;
#X obj 62 326 r \$0-to_low;
#X obj 473 10 inlet to_low;
#X obj 570 10 inlet to_high;
#X obj 35 10 inlet~;
#X obj 35 301 *~;
#X obj 35 369 outlet~;
#X obj 112 120 loadbang;
#X obj 112 167 t b b;
#X obj 112 261 -;
#X obj 112 142 t b b;
#X obj 232 160 t b b;
#X obj 232 265 -;
#X obj 112 283 /;
#X obj 112 239 \$4;
#X obj 139 239 \$3;
#X obj 232 232 \$2;
#X obj 259 232 \$1;
#X obj 211 53 s \$0-from_low;
#X obj 266 206 r \$0-from_low;
#X obj 191 74 s \$0-from_high;
#X obj 244 184 r \$0-from_high;
#X obj 362 53 s \$0-from_high;
#X obj 146 214 r \$0-to_low;
#X obj 124 192 r \$0-to_high;
#X obj 473 32 t b f;
#X obj 473 74 s \$0-to_high;
#X obj 500 53 s \$0-to_low;
#X obj 172 32 t b b f;
#X obj 172 95 s \$0-to_high;
#X obj 335 32 t b f;
#X obj 335 74 s \$0-to_high;
#X obj 570 32 s \$0-to_high;
#X obj 35 100 -~ \$1;
#X obj 35 347 +~ \$3;
#X connect 0 0 35 1;
#X connect 1 0 30 0;
#X connect 2 0 32 0;
#X connect 3 0 36 1;
#X connect 4 0 27 0;
#X connect 5 0 34 0;
#X connect 6 0 35 0;
#X connect 7 0 36 0;
#X connect 9 0 12 0;
#X connect 10 0 16 0;
#X connect 10 1 17 0;
#X connect 11 0 15 0;
#X connect 12 0 10 0;
#X connect 12 1 13 0;
#X connect 13 0 18 0;
#X connect 13 1 19 0;
#X connect 14 0 15 1;
#X connect 15 0 7 1;
#X connect 16 0 11 0;
#X connect 17 0 11 1;
#X connect 18 0 14 0;
#X connect 19 0 14 1;
#X connect 21 0 19 0;
#X connect 23 0 18 0;
#X connect 25 0 17 0;
#X connect 26 0 16 0;
#X connect 27 0 28 0;
#X connect 27 1 29 0;
#X connect 30 0 31 0;
#X connect 30 1 22 0;
#X connect 30 2 20 0;
#X connect 32 0 33 0;
#X connect 32 1 24 0;
#X connect 35 0 7 0;
#X connect 36 0 8 0;
