#N canvas 375 157 424 312 10;
#X obj 60 100 - 69;
#X obj 60 124 / 12;
#X obj 60 175 pow;
#X obj 60 199 * 440;
#X obj 60 77 inlet;
#X obj 128 90 loadbang;
#X obj 128 112 \$1;
#X obj 128 134 sel 0;
#X obj 60 221 outlet;
#X obj 206 182 inlet;
#X obj 60 148 swap 2;
#X connect 0 0 1 0;
#X connect 1 0 10 0;
#X connect 2 0 3 0;
#X connect 3 0 8 0;
#X connect 4 0 0 0;
#X connect 5 0 6 0;
#X connect 6 0 7 0;
#X connect 7 1 3 1;
#X connect 9 0 3 1;
#X connect 10 0 2 0;
#X connect 10 1 2 1;
