#N canvas 558 135 470 513 10;
#X obj 30 20 key;
#X obj 30 82 spigot;
#X obj 98 131 moses 48;
#X obj 143 152 moses 58;
#X obj 143 300 +;
#X obj 162 251 f;
#X obj 162 273 * 10;
#X msg 177 228 0;
#X obj 143 173 - 48;
#X obj 68 339 f;
#X obj 95 384 s;
#X obj 30 136 t b b;
#X symbolatom 211 46 0 0 0 0 - - -;
#X obj 211 67 tgl 15 0 empty empty empty 17 7 0 10 -262144 -1 -1 1
1;
#X text 263 46 set destination;
#X text 230 66 activate/deactivate;
#X floatatom 211 87 0 0 0 0 - - -;
#X text 257 88 display;
#X obj 225 367 inlet destination;
#X text 250 407 Made by Alexandros Drymonitis;
#X obj 30 114 sel 10 8;
#N canvas 94 187 487 305 set_arg 0;
#X obj 286 29 loadbang;
#X obj 286 51 \$1;
#X obj 286 73 sel 0 1 2 3 4 5 6 7 8 9;
#X msg 286 192 41;
#X msg 299 170 33;
#X msg 313 146 64;
#X msg 326 122 163;
#X msg 340 99 36;
#X msg 353 192 37;
#X msg 367 170 94;
#X msg 380 146 38;
#X msg 394 122 42;
#X msg 407 99 40;
#X obj 351 247 outlet;
#X msg 43 192 41;
#X msg 63 170 33;
#X msg 83 146 64;
#X msg 103 122 163;
#X msg 123 99 36;
#X msg 143 192 37;
#X msg 163 170 94;
#X msg 183 146 38;
#X msg 203 122 42;
#X msg 223 99 40;
#X obj 108 247 outlet;
#X obj 43 49 inlet;
#X obj 43 73 sel 41 33 64 163 36 37 94 38 42 40;
#X connect 0 0 1 0;
#X connect 1 0 2 0;
#X connect 2 0 3 0;
#X connect 2 1 4 0;
#X connect 2 2 5 0;
#X connect 2 3 6 0;
#X connect 2 4 7 0;
#X connect 2 5 8 0;
#X connect 2 6 9 0;
#X connect 2 7 10 0;
#X connect 2 8 11 0;
#X connect 2 9 12 0;
#X connect 3 0 13 0;
#X connect 4 0 13 0;
#X connect 5 0 13 0;
#X connect 6 0 13 0;
#X connect 7 0 13 0;
#X connect 8 0 13 0;
#X connect 9 0 13 0;
#X connect 10 0 13 0;
#X connect 11 0 13 0;
#X connect 12 0 13 0;
#X connect 14 0 24 0;
#X connect 15 0 24 0;
#X connect 16 0 24 0;
#X connect 17 0 24 0;
#X connect 18 0 24 0;
#X connect 19 0 24 0;
#X connect 20 0 24 0;
#X connect 21 0 24 0;
#X connect 22 0 24 0;
#X connect 23 0 24 0;
#X connect 25 0 26 0;
#X connect 26 0 14 0;
#X connect 26 1 15 0;
#X connect 26 2 16 0;
#X connect 26 3 17 0;
#X connect 26 4 18 0;
#X connect 26 5 19 0;
#X connect 26 6 20 0;
#X connect 26 7 21 0;
#X connect 26 8 22 0;
#X connect 26 9 23 0;
#X restore 83 59 pd set_arg;
#X obj 83 85 ==;
#X obj 30 42 t f f;
#X obj 338 212 loadbang;
#X obj 338 234 t b b;
#X obj 365 254 symbol \$2;
#X obj 143 196 t f b f;
#X obj 143 322 t f f f f;
#X obj 30 158 s \$0-done;
#X obj 68 315 r \$0-done;
#N canvas 107 126 448 389 \$0-correct 0;
#X obj 48 16 inlet;
#X obj 222 78 list prepend;
#X obj 222 102 t l l;
#X obj 131 119 list;
#X obj 131 141 t l l;
#X obj 188 158 list length;
#X obj 188 180 - 1;
#X obj 131 205 list split;
#X obj 159 285 -;
#X obj 159 329 outlet;
#X obj 267 220 inlet total;
#X obj 159 259 swap;
#X obj 131 57 inlet correct;
#X obj 159 307 / 10;
#X obj 291 56 r \$0-done;
#X obj 131 227 t l l;
#X obj 131 79 spigot;
#X obj 267 242 t f f;
#X connect 0 0 1 0;
#X connect 1 0 2 0;
#X connect 2 0 3 1;
#X connect 2 1 1 1;
#X connect 3 0 4 0;
#X connect 4 0 7 0;
#X connect 4 1 5 0;
#X connect 5 0 6 0;
#X connect 6 0 7 1;
#X connect 7 0 15 0;
#X connect 7 1 11 0;
#X connect 8 0 13 0;
#X connect 10 0 17 0;
#X connect 11 0 8 0;
#X connect 11 1 8 1;
#X connect 12 0 16 0;
#X connect 13 0 9 0;
#X connect 14 0 1 1;
#X connect 15 0 3 1;
#X connect 15 1 1 1;
#X connect 16 0 3 0;
#X connect 17 0 11 1;
#X connect 17 1 16 1;
#X restore 207 213 pd \$0-correct;
#X obj 68 361 t f f;
#X obj 68 406 outlet;
#X connect 0 0 23 0;
#X connect 1 0 20 0;
#X connect 2 1 3 0;
#X connect 3 0 8 0;
#X connect 4 0 28 0;
#X connect 5 0 6 0;
#X connect 6 0 4 1;
#X connect 7 0 5 1;
#X connect 8 0 27 0;
#X connect 9 0 32 0;
#X connect 11 0 29 0;
#X connect 11 1 7 0;
#X connect 12 0 10 1;
#X connect 13 0 1 1;
#X connect 18 0 10 1;
#X connect 20 0 11 0;
#X connect 20 1 31 1;
#X connect 20 2 2 0;
#X connect 21 0 22 0;
#X connect 21 1 22 1;
#X connect 22 0 13 0;
#X connect 23 0 1 0;
#X connect 23 1 21 0;
#X connect 24 0 25 0;
#X connect 25 0 13 0;
#X connect 25 1 26 0;
#X connect 26 0 10 1;
#X connect 27 0 4 0;
#X connect 27 1 5 0;
#X connect 27 2 31 0;
#X connect 28 0 9 1;
#X connect 28 1 5 1;
#X connect 28 2 16 0;
#X connect 28 3 31 2;
#X connect 30 0 9 0;
#X connect 31 0 28 0;
#X connect 32 0 33 0;
#X connect 32 1 10 0;
#X coords 0 -1 1 1 180 90 1 200 20;
