#N canvas 558 135 464 354 10;
#X obj 30 20 key;
#X obj 30 82 spigot;
#X obj 277 226 s;
#X symbolatom 211 46 0 0 0 0 - - -;
#X obj 211 67 tgl 15 0 empty empty empty 17 7 0 10 -262144 -1 -1 0
1;
#X text 263 46 set destination;
#X text 230 66 activate/deactivate;
#X floatatom 211 87 0 0 0 0 - - -;
#X text 257 88 display;
#X obj 317 209 inlet destination;
#X text 251 291 Made by Alexandros Drymonitis;
#X obj 30 114 sel 10 8;
#N canvas 94 187 487 305 set_arg 0;
#X obj 286 29 loadbang;
#X obj 286 51 \$1;
#X obj 286 73 sel 0 1 2 3 4 5 6 7 8 9;
#X msg 286 192 41;
#X msg 299 170 33;
#X msg 313 146 64;
#X msg 326 122 163;
#X msg 340 99 36;
#X msg 353 192 37;
#X msg 367 170 94;
#X msg 380 146 38;
#X msg 394 122 42;
#X msg 407 99 40;
#X obj 351 247 outlet;
#X msg 43 192 41;
#X msg 63 170 33;
#X msg 83 146 64;
#X msg 103 122 163;
#X msg 123 99 36;
#X msg 143 192 37;
#X msg 163 170 94;
#X msg 183 146 38;
#X msg 203 122 42;
#X msg 223 99 40;
#X obj 108 247 outlet;
#X obj 43 49 inlet;
#X obj 43 73 sel 41 33 64 163 36 37 94 38 42 40;
#X connect 0 0 1 0;
#X connect 1 0 2 0;
#X connect 2 0 3 0;
#X connect 2 1 4 0;
#X connect 2 2 5 0;
#X connect 2 3 6 0;
#X connect 2 4 7 0;
#X connect 2 5 8 0;
#X connect 2 6 9 0;
#X connect 2 7 10 0;
#X connect 2 8 11 0;
#X connect 2 9 12 0;
#X connect 3 0 13 0;
#X connect 4 0 13 0;
#X connect 5 0 13 0;
#X connect 6 0 13 0;
#X connect 7 0 13 0;
#X connect 8 0 13 0;
#X connect 9 0 13 0;
#X connect 10 0 13 0;
#X connect 11 0 13 0;
#X connect 12 0 13 0;
#X connect 14 0 24 0;
#X connect 15 0 24 0;
#X connect 16 0 24 0;
#X connect 17 0 24 0;
#X connect 18 0 24 0;
#X connect 19 0 24 0;
#X connect 20 0 24 0;
#X connect 21 0 24 0;
#X connect 22 0 24 0;
#X connect 23 0 24 0;
#X connect 25 0 26 0;
#X connect 26 0 14 0;
#X connect 26 1 15 0;
#X connect 26 2 16 0;
#X connect 26 3 17 0;
#X connect 26 4 18 0;
#X connect 26 5 19 0;
#X connect 26 6 20 0;
#X connect 26 7 21 0;
#X connect 26 8 22 0;
#X connect 26 9 23 0;
#X restore 83 59 pd set_arg;
#X obj 83 85 ==;
#X obj 30 42 t f f;
#X obj 362 119 loadbang;
#X obj 362 141 t b b;
#X obj 389 161 symbol \$2;
#X obj 30 162 s \$0-done;
#X obj 250 203 t f f;
#X obj 250 248 outlet;
#X obj 155 131 moses 48;
#X obj 250 148 moses 58;
#X msg 155 199 -1;
#X obj 180 175 s \$0-dec;
#X obj 155 221 s \$0-negative;
#N canvas 249 232 431 410 \$0-assemble_val 0;
#X obj 96 61 - 48;
#X obj 111 154 f;
#X obj 111 176 * 10;
#X obj 96 198 +;
#X msg 126 110 0;
#X obj 29 338 f;
#X msg 278 204 1;
#X obj 96 297 *;
#X obj 96 17 inlet;
#X obj 111 274 r \$0-negative;
#X obj 29 364 outlet;
#N canvas 403 132 360 344 \$0-correct 0;
#X obj 132 26 inlet;
#X obj 132 48 list prepend;
#X obj 132 72 t l l;
#X obj 41 89 list;
#X obj 41 111 t l l;
#X obj 98 128 list length;
#X obj 98 150 - 1;
#X obj 41 175 list split;
#X obj 69 255 -;
#X obj 69 299 outlet;
#X obj 177 190 inlet total;
#X obj 69 229 swap;
#X obj 69 277 / 10;
#X obj 201 26 r \$0-done;
#X obj 41 197 t l l;
#X obj 41 49 spigot;
#X obj 177 212 t f f;
#X obj 41 27 r \$0-correct;
#X connect 0 0 1 0;
#X connect 1 0 2 0;
#X connect 2 0 3 1;
#X connect 2 1 1 1;
#X connect 3 0 4 0;
#X connect 4 0 7 0;
#X connect 4 1 5 0;
#X connect 5 0 6 0;
#X connect 6 0 7 1;
#X connect 7 0 14 0;
#X connect 7 1 11 0;
#X connect 8 0 12 0;
#X connect 10 0 16 0;
#X connect 11 0 8 0;
#X connect 11 1 8 1;
#X connect 12 0 9 0;
#X connect 13 0 1 1;
#X connect 14 0 3 1;
#X connect 14 1 1 1;
#X connect 15 0 3 0;
#X connect 16 0 11 1;
#X connect 16 1 15 1;
#X connect 17 0 15 0;
#X restore 155 100 pd \$0-correct;
#X obj 96 83 t f b f;
#X obj 29 233 r \$0-done;
#X obj 96 247 /;
#X obj 347 13 r \$0-dec;
#X obj 123 342 s \$0-show;
#X obj 251 160 loadbang;
#X obj 251 182 t b b;
#X obj 29 255 t b b;
#X msg 347 35 1;
#X obj 96 39 t f b;
#X obj 314 78 f;
#X obj 344 78 + 1;
#X obj 314 100 swap 10;
#X obj 314 122 pow;
#X obj 314 56 spigot;
#X obj 278 226 t f f f;
#X obj 96 222 t f f f;
#X obj 96 321 t f f;
#X obj 126 132 t f f;
#X connect 0 0 12 0;
#X connect 1 0 2 0;
#X connect 2 0 3 1;
#X connect 3 0 28 0;
#X connect 4 0 30 0;
#X connect 5 0 10 0;
#X connect 6 0 27 0;
#X connect 7 0 29 0;
#X connect 8 0 21 0;
#X connect 9 0 7 1;
#X connect 11 0 28 0;
#X connect 12 0 3 0;
#X connect 12 1 1 0;
#X connect 12 2 11 0;
#X connect 13 0 19 0;
#X connect 14 0 7 0;
#X connect 15 0 20 0;
#X connect 17 0 18 0;
#X connect 18 0 4 0;
#X connect 18 1 6 0;
#X connect 19 0 5 0;
#X connect 19 1 18 0;
#X connect 20 0 26 1;
#X connect 21 0 0 0;
#X connect 21 1 26 0;
#X connect 22 0 23 0;
#X connect 22 0 24 0;
#X connect 23 0 22 1;
#X connect 24 0 25 0;
#X connect 24 1 25 1;
#X connect 25 0 14 1;
#X connect 26 0 22 0;
#X connect 27 0 14 1;
#X connect 27 1 7 1;
#X connect 27 2 22 1;
#X connect 28 0 14 0;
#X connect 28 1 1 1;
#X connect 28 2 11 1;
#X connect 29 0 5 1;
#X connect 29 1 16 0;
#X connect 30 0 1 1;
#X connect 30 1 26 1;
#X restore 250 171 pd \$0-assemble_val;
#X obj 155 153 sel 45 46;
#X obj 132 20 r \$0-show;
#X obj 52 138 s \$0-correct;
#X connect 0 0 14 0;
#X connect 1 0 11 0;
#X connect 3 0 2 1;
#X connect 4 0 1 1;
#X connect 9 0 2 1;
#X connect 11 0 18 0;
#X connect 11 1 29 0;
#X connect 11 2 21 0;
#X connect 12 0 13 0;
#X connect 12 1 13 1;
#X connect 13 0 4 0;
#X connect 14 0 1 0;
#X connect 14 1 12 0;
#X connect 15 0 16 0;
#X connect 16 0 4 0;
#X connect 16 1 17 0;
#X connect 17 0 2 1;
#X connect 19 0 20 0;
#X connect 19 1 2 0;
#X connect 21 0 27 0;
#X connect 21 1 22 0;
#X connect 22 0 26 0;
#X connect 23 0 25 0;
#X connect 26 0 19 0;
#X connect 27 0 23 0;
#X connect 27 1 24 0;
#X connect 28 0 7 0;
#X coords 0 -1 1 1 180 90 1 200 20;
