#N canvas 535 120 449 358 10;
#X obj 48 56 inlet;
#X obj 75 100 i;
#X obj 48 78 t f f;
#X obj 75 122 t f f;
#X obj 48 146 -;
#X obj 48 168 > 0.5;
#X obj 48 192 +;
#X obj 48 237 outlet;
#X text 43 24 Round a float to the nearest integer;
#X text 48 276 Written by Alexandros Drymonitis;
#X obj 48 214 change;
#X connect 0 0 2 0;
#X connect 1 0 3 0;
#X connect 2 0 4 0;
#X connect 2 1 1 0;
#X connect 3 0 4 1;
#X connect 3 1 6 1;
#X connect 4 0 5 0;
#X connect 5 0 6 0;
#X connect 6 0 10 0;
#X connect 10 0 7 0;
