#N canvas 450 428 487 410 10;
#X obj 30 67 inlet;
#X obj 104 180 t a b;
#X obj 104 242 spigot;
#X obj 218 235 + 1;
#X obj 188 197 spigot 1;
#X obj 209 150 t f f;
#X obj 241 173 == 0;
#X obj 104 264 outlet;
#X obj 188 257 sel \$1;
#X obj 315 240 inlet;
#X obj 30 89 route reset;
#X obj 188 235 f;
#X obj 188 279 t b b;
#X msg 188 301 0;
#X msg 254 296 1;
#X msg 30 111 0;
#X obj 30 133 t f f;
#X text 27 30 Skip a certain number of input iterations;
#X text 236 359 Written by Alexandros Drymonitis;
#X connect 0 0 10 0;
#X connect 1 0 2 0;
#X connect 1 1 4 0;
#X connect 2 0 7 0;
#X connect 3 0 11 1;
#X connect 4 0 11 0;
#X connect 5 0 2 1;
#X connect 5 1 6 0;
#X connect 6 0 4 1;
#X connect 8 0 12 0;
#X connect 9 0 8 1;
#X connect 10 0 15 0;
#X connect 10 1 1 0;
#X connect 11 0 3 0;
#X connect 11 0 8 0;
#X connect 12 0 13 0;
#X connect 12 1 14 0;
#X connect 13 0 11 1;
#X connect 14 0 5 0;
#X connect 15 0 16 0;
#X connect 16 0 11 1;
#X connect 16 1 5 0;
