#N canvas 543 285 719 401 10;
#X obj 79 360 namecanvas \$0-this;
#N canvas 672 153 639 431 \$0-guts 0;
#X obj 51 109 moses 1;
#X obj 80 247 + 1;
#X obj 51 82 i \$1;
#X obj 51 247 i;
#X obj 51 182 t f b;
#X obj 51 205 until;
#X msg 66 225 0;
#X msg 51 134 2;
#X text 83 134 no creation arg gives 2 inlets;
#X obj 309 62 r \$0-start;
#X obj 309 84 \$1;
#X obj 309 153 until;
#X obj 309 197 f;
#X obj 339 197 + 1;
#X msg 324 174 0;
#X obj 309 106 t f b;
#X obj 415 259 moses \$1;
#X obj 415 281 t b f;
#X obj 415 352 s;
#X msg 442 326 symbol \$2-bang\$1;
#X obj 442 304 pack f \$0;
#X obj 534 276 t b;
#X obj 534 298 s \$0-done;
#X obj 51 156 t f f f;
#X obj 309 128 + 2;
#X obj 309 219 moses 1;
#X obj 415 236 - 1;
#X obj 309 241 t b;
#X obj 309 263 s \$0-clear;
#X obj 51 36 spigot 1;
#X obj 51 58 t b b;
#X msg 119 35 0;
#N canvas 95 338 472 374 \$0-create_objects 0;
#X obj 73 246 s \$0-this;
#X obj 46 99 t f f;
#X obj 46 10 inlet;
#X obj 46 224 t b a;
#X obj 46 346 outlet;
#X obj 73 122 + 80;
#X obj 46 77 + 20;
#X obj 46 55 * 140;
#X obj 46 302 f;
#X obj 76 302 + 1;
#X obj 46 324 sel 6;
#X msg 61 278 0;
#X obj 46 32 t f f b;
#X obj 46 151 pack f f f \$0;
#X msg 46 175 obj \$1 10 inlet \, obj \$1 40 route bang float \, obj
\$1 70 s \$4-done \, obj \$2 70 t b f \, obj \$2 150 f \, obj \$2 125
r \$4-bang\$3 \, obj \$1 100 s \$4-start;
#X connect 1 0 13 0;
#X connect 1 1 5 0;
#X connect 2 0 12 0;
#X connect 3 0 8 0;
#X connect 3 1 0 0;
#X connect 5 0 13 1;
#X connect 6 0 1 0;
#X connect 7 0 6 0;
#X connect 8 0 9 0;
#X connect 8 0 10 0;
#X connect 9 0 8 1;
#X connect 10 0 4 0;
#X connect 11 0 8 1;
#X connect 12 0 7 0;
#X connect 12 1 13 2;
#X connect 12 2 11 0;
#X connect 13 0 14 0;
#X connect 14 0 3 0;
#X restore 51 292 pd \$0-create_objects;
#N canvas 511 268 468 443 \$0-make_connections 0;
#X obj 36 181 until;
#X obj 36 204 f;
#X obj 66 204 + 1;
#X obj 51 67 inlet;
#X obj 36 20 inlet;
#X obj 63 274 list prepend;
#X obj 63 296 t l l;
#X obj 36 318 list;
#X obj 36 249 t f f;
#X obj 36 274 sel;
#X obj 36 134 t b f f;
#X msg 36 157 7;
#X msg 36 340 connect \$1 0 \$2 0 \, connect \$2 0 \$3 0 \, connect
\$2 1 \$4 0 \, connect \$4 1 \$5 1 \, connect \$4 0 \$7 0 \, connect
\$6 0 \$5 0 \, connect \$5 0 2 0;
#X obj 36 388 s \$0-this;
#X obj 36 226 + 10;
#X obj 94 151 + 16;
#X obj 36 112 f;
#X obj 51 89 * 7;
#X obj 36 42 t b b;
#X connect 0 0 1 0;
#X connect 1 0 2 0;
#X connect 1 0 14 0;
#X connect 2 0 1 1;
#X connect 3 0 17 0;
#X connect 4 0 18 0;
#X connect 5 0 6 0;
#X connect 6 0 7 1;
#X connect 6 1 5 1;
#X connect 7 0 12 0;
#X connect 8 0 9 0;
#X connect 8 1 5 0;
#X connect 9 0 7 0;
#X connect 10 0 11 0;
#X connect 10 1 1 1;
#X connect 10 2 15 0;
#X connect 11 0 0 0;
#X connect 12 0 13 0;
#X connect 14 0 8 0;
#X connect 15 0 9 1;
#X connect 16 0 10 0;
#X connect 17 0 16 1;
#X connect 18 0 16 0;
#X connect 18 1 5 1;
#X restore 51 315 pd \$0-make_connections;
#X obj 51 269 t f f;
#X obj 51 14 r _initbang;
#X connect 0 0 7 0;
#X connect 0 1 4 0;
#X connect 1 0 3 1;
#X connect 2 0 0 0;
#X connect 3 0 1 0;
#X connect 3 0 34 0;
#X connect 4 0 5 0;
#X connect 4 1 6 0;
#X connect 5 0 3 0;
#X connect 6 0 3 1;
#X connect 7 0 23 0;
#X connect 9 0 10 0;
#X connect 10 0 15 0;
#X connect 11 0 12 0;
#X connect 12 0 13 0;
#X connect 12 0 25 0;
#X connect 13 0 12 1;
#X connect 14 0 12 1;
#X connect 15 0 24 0;
#X connect 15 1 14 0;
#X connect 16 0 17 0;
#X connect 16 1 21 0;
#X connect 17 0 18 0;
#X connect 17 1 20 0;
#X connect 19 0 18 1;
#X connect 20 0 19 0;
#X connect 21 0 22 0;
#X connect 23 0 4 0;
#X connect 23 1 16 1;
#X connect 23 2 10 1;
#X connect 24 0 11 0;
#X connect 25 0 27 0;
#X connect 25 1 26 0;
#X connect 26 0 16 0;
#X connect 27 0 28 0;
#X connect 29 0 30 0;
#X connect 30 0 2 0;
#X connect 30 1 31 0;
#X connect 31 0 29 1;
#X connect 32 0 33 0;
#X connect 34 0 32 0;
#X connect 34 1 33 1;
#X connect 35 0 29 0;
#X restore 200 360 pd \$0-guts;
#X obj 100 247 list prepend;
#X obj 100 269 t l l;
#X obj 79 291 list;
#X obj 79 313 list trim;
#X obj 79 335 outlet;
#X obj 79 224 r \$0-done;
#X obj 169 224 r \$0-clear;
#X text 287 257 Pd-vanilla list abstraction with hot inlets only. Inspired
by [vanillaBondo] by Matt Davey. Made by Alexandros Drymonitis;
#X connect 2 0 3 0;
#X connect 3 0 4 1;
#X connect 3 1 2 1;
#X connect 4 0 5 0;
#X connect 5 0 6 0;
#X connect 7 0 4 0;
#X connect 8 0 2 1;
_initbang bang;
