#N canvas 423 118 827 464 10;
#X obj 42 66 inlet;
#X obj 285 241 t b f;
#X obj 163 301 !=;
#X obj 163 346 symbol;
#X obj 163 368 t s s;
#X obj 163 390 outlet;
#X obj 163 221 list;
#X obj 163 243 list split 1;
#X obj 285 219 list split 1;
#X obj 351 105 symbol \$1;
#X obj 285 196 list;
#X obj 163 324 sel 1 0;
#X obj 412 284 list length;
#X obj 385 179 t l l;
#X obj 76 157 t l l;
#X obj 76 205 list length;
#X obj 42 88 t s s b;
#X text 43 22 compare a symbol to the previous one and output it only
if it's different;
#X text 409 309 first check the length of the symbols. if they're different
then the symbols are different too. if not \, check their characters
one by one;
#X text 560 410 Written by Alexandros Drymonitis;
#X obj 351 127 moocow/any2bytes;
#X obj 351 149 list split 7;
#X text 432 146 exclude the "symbol" selector;
#X obj 42 112 any2bytes;
#X obj 42 134 list split 7;
#X connect 0 0 16 0;
#X connect 1 0 6 0;
#X connect 1 1 2 1;
#X connect 2 0 11 0;
#X connect 3 0 4 0;
#X connect 4 0 5 0;
#X connect 4 1 9 0;
#X connect 6 0 7 0;
#X connect 7 0 2 0;
#X connect 7 1 6 1;
#X connect 8 0 1 0;
#X connect 8 1 10 1;
#X connect 9 0 20 0;
#X connect 10 0 8 0;
#X connect 11 0 3 0;
#X connect 11 1 10 0;
#X connect 12 0 2 1;
#X connect 13 0 10 1;
#X connect 13 1 12 0;
#X connect 14 0 15 0;
#X connect 14 1 6 1;
#X connect 15 0 2 0;
#X connect 16 0 23 0;
#X connect 16 1 3 1;
#X connect 16 2 9 0;
#X connect 20 0 21 0;
#X connect 21 1 13 0;
#X connect 23 0 24 0;
#X connect 24 1 14 0;
